<svg width="545" height="366" viewBox="0 0 545 366" fill="none" xmlns="http://www.w3.org/2000/svg">
<path d="M507.788 63.6052H499.508C498.85 63.6065 498.207 63.3642 497.67 62.9121C497.133 62.4599 496.727 61.8202 496.509 61.0816C495.875 58.9175 495.125 56.8038 494.265 54.7534C493.967 54.044 493.866 53.2412 493.974 52.4591C494.082 51.677 494.395 50.9554 494.868 50.3969L500.753 43.3977C501.351 42.6859 501.687 41.7209 501.687 40.7147C501.687 39.7086 501.351 38.7436 500.753 38.0318L488.039 22.9173C487.44 22.206 486.629 21.8065 485.783 21.8065C484.937 21.8065 484.126 22.206 483.528 22.9173L477.536 30.0427C477.07 30.5995 476.469 30.9691 475.817 31.1C475.166 31.2309 474.496 31.1165 473.901 30.7729C472.21 29.7907 470.468 28.9367 468.686 28.2162C468.058 27.9618 467.513 27.4797 467.128 26.8377C466.742 26.1958 466.535 25.4262 466.536 24.6373V14.5431C466.537 14.0451 466.454 13.5519 466.294 13.0918C466.134 12.6317 465.899 12.2136 465.603 11.8615C465.307 11.5093 464.955 11.23 464.568 11.0395C464.182 10.849 463.767 10.7509 463.348 10.751H445.375C444.956 10.7509 444.541 10.849 444.155 11.0395C443.768 11.23 443.416 11.5093 443.12 11.8615C442.824 12.2136 442.589 12.6317 442.429 13.0918C442.269 13.5519 442.186 14.0451 442.186 14.5431V24.6373C442.188 25.4262 441.981 26.1958 441.595 26.8377C441.21 27.4797 440.665 27.9618 440.037 28.2162C438.255 28.9366 436.513 29.7905 434.822 30.7729C434.228 31.1165 433.558 31.2309 432.906 31.1C432.255 30.9691 431.654 30.5995 431.187 30.0427L425.196 22.9173C424.598 22.2062 423.786 21.8067 422.94 21.8067C422.094 21.8067 421.283 22.2062 420.684 22.9173L407.97 38.0318C407.372 38.7436 407.036 39.7086 407.036 40.7147C407.036 41.7209 407.372 42.6859 407.97 43.3977L413.855 50.3969C414.328 50.9555 414.641 51.6771 414.749 52.4592C414.857 53.2413 414.755 54.0441 414.458 54.7534C413.596 56.8025 412.849 58.9165 412.219 61.0816C411.999 61.8202 411.592 62.4594 411.054 62.9114C410.516 63.3634 409.873 63.6057 409.215 63.6052H400.934C400.516 63.605 400.101 63.7029 399.714 63.8935C399.327 64.084 398.976 64.3633 398.68 64.7154C398.383 65.0676 398.149 65.4857 397.988 65.9458C397.828 66.406 397.746 66.8992 397.746 67.3972V88.7807C397.746 89.2787 397.828 89.7719 397.988 90.2321C398.149 90.6922 398.383 91.1103 398.68 91.4625C398.976 91.8146 399.327 92.094 399.714 92.2845C400.101 92.475 400.516 92.5729 400.934 92.5727H408.997C409.668 92.5721 410.322 92.8236 410.865 93.2911C411.408 93.7586 411.813 94.4183 412.023 95.176C412.645 97.3987 413.389 99.5704 414.251 101.677C414.543 102.387 414.642 103.187 414.534 103.967C414.426 104.747 414.116 105.467 413.647 106.027L407.969 112.781C407.673 113.133 407.437 113.551 407.277 114.011C407.117 114.471 407.034 114.964 407.034 115.462C407.034 115.96 407.117 116.453 407.277 116.913C407.437 117.373 407.673 117.791 407.969 118.143L420.683 133.261C421.282 133.972 422.093 134.372 422.939 134.372C423.785 134.372 424.596 133.972 425.195 133.261L430.761 126.64C431.236 126.078 431.847 125.707 432.508 125.58C433.17 125.454 433.848 125.578 434.447 125.935C436.247 127.005 438.107 127.928 440.014 128.698C440.646 128.952 441.195 129.435 441.584 130.079C441.974 130.724 442.184 131.497 442.185 132.291V141.627C442.185 142.126 442.267 142.619 442.426 143.08C442.586 143.541 442.821 143.96 443.117 144.313C443.413 144.666 443.765 144.946 444.152 145.137C444.539 145.328 444.954 145.426 445.374 145.426H463.347C463.766 145.426 464.181 145.328 464.568 145.137C464.956 144.946 465.307 144.666 465.603 144.313C465.9 143.96 466.134 143.541 466.294 143.08C466.454 142.619 466.536 142.126 466.535 141.627V132.292C466.537 131.498 466.747 130.725 467.136 130.081C467.526 129.437 468.075 128.953 468.707 128.699C470.613 127.93 472.473 127.007 474.274 125.936C474.873 125.579 475.551 125.455 476.212 125.582C476.874 125.708 477.485 126.079 477.959 126.642L483.526 133.263C484.125 133.974 484.936 134.374 485.782 134.374C486.628 134.374 487.439 133.974 488.037 133.263L500.752 118.141C501.048 117.789 501.283 117.372 501.444 116.911C501.604 116.451 501.687 115.958 501.687 115.46C501.687 114.962 501.604 114.469 501.444 114.009C501.283 113.549 501.048 113.131 500.752 112.779L495.073 106.026C494.605 105.465 494.295 104.745 494.187 103.965C494.079 103.186 494.178 102.385 494.47 101.676C495.332 99.5691 496.076 97.3974 496.698 95.1746C496.907 94.4169 497.312 93.7572 497.856 93.2897C498.399 92.8222 499.053 92.5707 499.723 92.5713H507.786C508.204 92.5715 508.619 92.4735 509.006 92.283C509.393 92.0925 509.744 91.8132 510.04 91.4611C510.337 91.1089 510.571 90.6908 510.732 90.2307C510.892 89.7705 510.974 89.2773 510.974 88.7793V67.3972C510.974 66.8994 510.892 66.4065 510.732 65.9465C510.572 65.4865 510.337 65.0685 510.041 64.7164C509.745 64.3643 509.394 64.0849 509.008 63.8943C508.621 63.7036 508.207 63.6054 507.788 63.6052ZM454.364 109.687C449.109 109.687 443.971 107.834 439.602 104.362C435.232 100.89 431.826 95.9548 429.815 90.1804C427.803 84.4061 427.277 78.052 428.302 71.9219C429.327 65.7917 431.858 60.1608 435.574 55.7412C439.29 51.3217 444.024 48.312 449.179 47.0927C454.333 45.8735 459.675 46.4995 464.53 48.8917C469.385 51.2838 473.535 55.3345 476.454 60.5316C479.374 65.7287 480.932 71.8387 480.931 78.089C480.93 86.4689 478.131 94.5053 473.149 100.431C468.167 106.356 461.41 109.686 454.364 109.687Z" fill="#E98862" fill-opacity="0.54"/>
<path d="M155.655 294.291H149.573C149.09 294.292 148.618 294.114 148.223 293.782C147.829 293.449 147.531 292.979 147.371 292.437C146.905 290.847 146.354 289.294 145.722 287.788C145.504 287.267 145.429 286.678 145.508 286.103C145.588 285.529 145.818 284.999 146.165 284.588L150.49 279.446C150.929 278.923 151.176 278.214 151.176 277.475C151.176 276.736 150.929 276.027 150.49 275.504L141.151 264.403C140.712 263.88 140.116 263.587 139.494 263.587C138.873 263.587 138.277 263.88 137.837 264.403L133.437 269.637C133.094 270.045 132.653 270.317 132.174 270.413C131.696 270.509 131.204 270.425 130.768 270.173C129.526 269.451 128.246 268.824 126.938 268.295C126.476 268.108 126.076 267.754 125.793 267.282C125.509 266.811 125.358 266.246 125.358 265.666V258.253C125.359 257.887 125.298 257.525 125.18 257.187C125.063 256.849 124.89 256.542 124.673 256.283C124.455 256.024 124.197 255.819 123.913 255.679C123.629 255.539 123.324 255.467 123.017 255.468H109.811C109.503 255.467 109.199 255.539 108.914 255.679C108.63 255.819 108.372 256.024 108.155 256.283C107.937 256.542 107.765 256.849 107.647 257.187C107.529 257.525 107.469 257.887 107.469 258.253V265.668C107.47 266.247 107.318 266.812 107.035 267.284C106.751 267.755 106.351 268.109 105.89 268.296C104.581 268.825 103.302 269.453 102.06 270.174C101.623 270.427 101.131 270.511 100.653 270.414C100.174 270.318 99.7328 270.047 99.3902 269.638L94.9894 264.404C94.5499 263.882 93.9538 263.588 93.3324 263.588C92.7109 263.588 92.1149 263.882 91.6753 264.404L82.3369 275.506C81.8976 276.028 81.6509 276.737 81.6509 277.476C81.6509 278.216 81.8976 278.924 82.3369 279.447L86.6594 284.588C87.0066 284.999 87.2363 285.529 87.3158 286.103C87.3954 286.678 87.3207 287.267 87.1025 287.788C86.4699 289.294 85.9204 290.846 85.4576 292.437C85.2963 292.979 84.9975 293.449 84.6024 293.781C84.2073 294.113 83.7354 294.291 83.2516 294.291H77.1685C76.861 294.291 76.5564 294.363 76.2723 294.503C75.9881 294.643 75.7299 294.848 75.5124 295.106C75.2949 295.365 75.1224 295.672 75.0048 296.01C74.8871 296.348 74.8266 296.71 74.8267 297.076V312.782C74.8266 313.148 74.8871 313.511 75.0048 313.848C75.1224 314.186 75.2949 314.494 75.5124 314.752C75.7299 315.011 75.9881 315.216 76.2723 315.356C76.5564 315.496 76.861 315.568 77.1685 315.568H83.0908C83.5835 315.567 84.0637 315.752 84.4629 316.095C84.8621 316.438 85.1598 316.923 85.3135 317.48C85.7707 319.112 86.3174 320.708 86.9501 322.255C87.1649 322.776 87.2377 323.364 87.1583 323.937C87.0788 324.51 86.8512 325.039 86.507 325.45L82.3363 330.411C82.1188 330.67 81.9463 330.976 81.8285 331.314C81.7108 331.652 81.6502 332.014 81.6502 332.379C81.6502 332.745 81.7108 333.107 81.8285 333.445C81.9463 333.782 82.1188 334.089 82.3363 334.347L91.6748 345.455C92.1143 345.977 92.7104 346.271 93.3318 346.271C93.9532 346.271 94.5493 345.977 94.9888 345.455L99.0776 340.591C99.4261 340.178 99.8751 339.906 100.361 339.813C100.847 339.72 101.345 339.812 101.784 340.075C103.107 340.86 104.473 341.538 105.874 342.104C106.338 342.29 106.741 342.645 107.027 343.118C107.313 343.591 107.468 344.159 107.469 344.742V351.601C107.468 351.967 107.529 352.33 107.646 352.668C107.763 353.006 107.936 353.314 108.153 353.573C108.371 353.832 108.629 354.038 108.914 354.178C109.198 354.318 109.503 354.39 109.811 354.39H123.013C123.321 354.39 123.626 354.318 123.91 354.178C124.194 354.038 124.453 353.832 124.67 353.573C124.888 353.314 125.06 353.006 125.178 352.668C125.295 352.33 125.355 351.967 125.355 351.601V344.742C125.356 344.159 125.51 343.591 125.796 343.118C126.082 342.645 126.486 342.29 126.95 342.104C128.35 341.538 129.717 340.86 131.039 340.075C131.479 339.812 131.977 339.72 132.463 339.813C132.949 339.906 133.398 340.178 133.746 340.591L137.835 345.455C138.274 345.977 138.87 346.271 139.492 346.271C140.113 346.271 140.709 345.977 141.149 345.455L150.49 334.347C150.707 334.089 150.88 333.782 150.998 333.445C151.115 333.107 151.176 332.745 151.176 332.379C151.176 332.014 151.115 331.652 150.998 331.314C150.88 330.976 150.707 330.67 150.49 330.411L146.319 325.45C145.975 325.039 145.747 324.51 145.668 323.937C145.588 323.364 145.661 322.776 145.876 322.255C146.509 320.708 147.055 319.112 147.513 317.48C147.666 316.923 147.964 316.438 148.363 316.095C148.762 315.752 149.243 315.567 149.735 315.568H155.658C155.965 315.568 156.27 315.496 156.554 315.356C156.838 315.216 157.096 315.011 157.314 314.752C157.531 314.494 157.704 314.186 157.821 313.848C157.939 313.511 157.999 313.148 157.999 312.782V297.076C157.999 296.71 157.939 296.348 157.821 296.009C157.703 295.671 157.531 295.364 157.313 295.105C157.095 294.847 156.837 294.642 156.552 294.502C156.268 294.362 155.963 294.29 155.655 294.291ZM116.414 328.138C112.554 328.138 108.781 326.777 105.572 324.227C102.362 321.676 99.8609 318.051 98.3838 313.81C96.9067 309.569 96.5203 304.902 97.2733 300.399C98.0263 295.897 99.885 291.761 102.614 288.515C105.344 285.269 108.821 283.058 112.607 282.163C116.392 281.267 120.316 281.727 123.882 283.484C127.448 285.24 130.496 288.215 132.641 292.032C134.785 295.849 135.93 300.337 135.93 304.928C135.93 307.976 135.425 310.994 134.444 313.81C133.463 316.626 132.026 319.185 130.214 321.34C128.401 323.495 126.25 325.205 123.882 326.371C121.514 327.538 118.977 328.138 116.414 328.138Z" fill="#E98862" fill-opacity="0.53"/>
<path d="M110.043 165.943H101.762C101.104 165.944 100.461 165.702 99.9242 165.25C99.387 164.798 98.9813 164.158 98.7633 163.42C98.1293 161.255 97.3795 159.141 96.5187 157.091C96.2213 156.381 96.1196 155.579 96.2279 154.797C96.3362 154.014 96.649 153.293 97.1219 152.734L103.007 145.735C103.605 145.023 103.941 144.058 103.941 143.052C103.941 142.046 103.605 141.081 103.007 140.369L90.2932 125.255C89.6947 124.544 88.8834 124.144 88.0374 124.144C87.1914 124.144 86.38 124.544 85.7815 125.255L79.7904 132.38C79.324 132.937 78.723 133.307 78.0713 133.438C77.4195 133.569 76.7497 133.454 76.1554 133.11C74.4641 132.128 72.7222 131.274 70.9402 130.554C70.3122 130.299 69.7672 129.817 69.3816 129.175C68.996 128.533 68.7893 127.764 68.7905 126.975V116.88C68.7906 116.382 68.7083 115.889 68.5481 115.429C68.3879 114.969 68.1531 114.551 67.857 114.199C67.5609 113.847 67.2093 113.567 66.8224 113.377C66.4355 113.186 66.0209 113.088 65.6021 113.088H47.6288C47.2101 113.088 46.7955 113.186 46.4087 113.377C46.0218 113.567 45.6704 113.847 45.3743 114.199C45.0783 114.551 44.8435 114.969 44.6834 115.429C44.5232 115.889 44.4409 116.382 44.441 116.88V126.975C44.4422 127.764 44.2354 128.533 43.8498 129.175C43.4642 129.817 42.9192 130.299 42.2913 130.554C40.5092 131.274 38.7673 132.128 37.0761 133.11C36.4818 133.454 35.812 133.569 35.1603 133.438C34.5085 133.307 33.9075 132.937 33.4411 132.38L27.45 125.255C26.8515 124.544 26.0401 124.144 25.1941 124.144C24.3481 124.144 23.5368 124.544 22.9383 125.255L10.2235 140.369C9.62556 141.081 9.28972 142.046 9.28972 143.052C9.28972 144.058 9.62556 145.023 10.2235 145.735L16.109 152.734C16.5818 153.293 16.8945 154.015 17.0027 154.797C17.1109 155.579 17.0091 156.381 16.7117 157.091C15.8502 159.14 15.1024 161.254 14.473 163.42C14.253 164.158 13.8459 164.797 13.3079 165.249C12.7698 165.701 12.1272 165.944 11.4685 165.943H3.18834C2.76963 165.943 2.35497 166.041 1.96808 166.231C1.58118 166.422 1.22964 166.701 0.933532 167.053C0.637429 167.405 0.402574 167.823 0.242393 168.283C0.0822113 168.743 -0.000155456 169.237 4.97216e-07 169.735V191.118C-0.000233428 191.616 0.0820758 192.109 0.242222 192.57C0.402368 193.03 0.637211 193.448 0.933322 193.8C1.22943 194.152 1.58101 194.432 1.96794 194.622C2.35487 194.813 2.76958 194.91 3.18834 194.91H11.2508C11.9214 194.91 12.5749 195.161 13.1181 195.629C13.6614 196.096 14.0666 196.756 14.2761 197.513C14.8983 199.736 15.6425 201.908 16.504 204.015C16.7963 204.725 16.8953 205.525 16.7872 206.305C16.679 207.084 16.3692 207.804 15.9008 208.365L10.2223 215.118C9.92597 215.47 9.69092 215.888 9.53054 216.348C9.37016 216.808 9.28761 217.301 9.28761 217.799C9.28761 218.297 9.37016 218.79 9.53054 219.25C9.69092 219.71 9.92597 220.128 10.2223 220.48L22.9365 235.601C23.535 236.312 24.3464 236.711 25.1924 236.711C26.0383 236.711 26.8497 236.312 27.4482 235.601L33.0146 228.98C33.4889 228.417 34.1001 228.046 34.7616 227.919C35.423 227.793 36.1012 227.917 36.7 228.274C38.5008 229.344 40.3608 230.267 42.267 231.036C42.8992 231.291 43.4486 231.774 43.8381 232.418C44.2277 233.062 44.4379 233.836 44.4393 234.629V243.967C44.4386 244.465 44.5205 244.959 44.6804 245.42C44.8402 245.88 45.0749 246.299 45.371 246.652C45.6671 247.005 46.0187 247.285 46.4058 247.475C46.7929 247.667 47.2079 247.765 47.627 247.765H65.6003C66.0195 247.765 66.4345 247.667 66.8217 247.476C67.2089 247.285 67.5606 247.005 67.8567 246.652C68.1529 246.299 68.3876 245.88 68.5475 245.42C68.7074 244.959 68.7894 244.465 68.7887 243.967V234.629C68.7901 233.836 69.0003 233.062 69.3898 232.418C69.7794 231.774 70.3288 231.291 70.9609 231.036C72.867 230.267 74.7267 229.344 76.5273 228.274C77.1261 227.917 77.8043 227.793 78.4658 227.919C79.1273 228.046 79.7385 228.417 80.2128 228.98L85.7797 235.601C86.3782 236.312 87.1896 236.711 88.0356 236.711C88.8816 236.711 89.693 236.312 90.2915 235.601L103.005 220.48C103.301 220.128 103.536 219.71 103.697 219.25C103.857 218.79 103.94 218.297 103.94 217.799C103.94 217.301 103.857 216.808 103.697 216.348C103.536 215.888 103.301 215.47 103.005 215.118L97.3266 208.365C96.8582 207.804 96.5483 207.084 96.4402 206.305C96.3321 205.525 96.431 204.725 96.7233 204.015C97.5851 201.908 98.3293 199.736 98.9513 197.513C99.1607 196.756 99.566 196.096 100.109 195.629C100.652 195.161 101.306 194.91 101.977 194.91H110.04C110.458 194.91 110.873 194.812 111.26 194.622C111.647 194.431 111.998 194.152 112.294 193.8C112.59 193.448 112.825 193.03 112.985 192.569C113.145 192.109 113.228 191.616 113.227 191.118V169.735C113.228 168.73 112.892 167.766 112.295 167.055C111.698 166.344 110.888 165.944 110.043 165.943ZM56.6178 212.024C51.3626 212.025 46.2253 210.172 41.8556 206.7C37.4859 203.227 34.08 198.292 32.0687 192.518C30.0574 186.743 29.531 180.389 30.5562 174.259C31.5813 168.129 34.1119 162.498 37.8278 158.079C41.5438 153.659 46.2783 150.649 51.4325 149.43C56.5868 148.211 61.9293 148.837 66.7843 151.229C71.6394 153.621 75.789 157.672 78.7084 162.869C81.6277 168.066 83.1856 174.176 83.1852 180.426C83.1844 188.806 80.3851 196.843 75.4029 202.768C70.4207 208.694 63.6637 212.023 56.6178 212.024Z" fill="#E98862" fill-opacity="0.46"/>
<path d="M83.8252 305.12L395.709 305.12C403.368 305.12 409.577 297.735 409.577 288.626L409.577 17.0433C409.577 7.93408 403.368 0.549591 395.709 0.549591L83.8252 0.549591C76.1661 0.549591 69.9572 7.93408 69.9572 17.0433L69.9572 288.626C69.9572 297.735 76.1661 305.12 83.8252 305.12Z" fill="white"/>
<path d="M69.4946 288.626V17.0433C69.4991 12.5247 71.0104 8.19269 73.697 4.9976C76.3835 1.80251 80.0259 0.00522773 83.8252 0L395.71 0C399.51 0.00522773 403.152 1.80251 405.839 4.9976C408.525 8.19269 410.036 12.5247 410.041 17.0433V288.626C410.037 293.144 408.525 297.477 405.839 300.672C403.152 303.867 399.51 305.664 395.71 305.669H83.8252C80.0259 305.664 76.3834 303.867 73.6968 300.672C71.0102 297.477 69.499 293.144 69.4946 288.626ZM83.8252 1.09986C80.271 1.10472 76.8635 2.7861 74.3503 5.77516C71.8371 8.76421 70.4234 12.8169 70.4193 17.044V288.626C70.4234 292.853 71.8371 296.906 74.3503 299.895C76.8635 302.884 80.271 304.565 83.8252 304.57H395.71C399.264 304.565 402.672 302.884 405.185 299.895C407.698 296.906 409.112 292.853 409.116 288.626V17.0433C409.112 12.8161 407.699 8.76334 405.185 5.77425C402.672 2.78515 399.265 1.10383 395.71 1.09916L83.8252 1.09986Z" fill="#292A2E"/>
<path d="M69.9572 17.0412V33.6379H409.576V17.0412C409.576 12.6673 408.115 8.47248 405.515 5.37938C402.915 2.28629 399.388 0.548234 395.71 0.547485H83.8252C80.1472 0.547485 76.6198 2.28521 74.0191 5.37839C71.4183 8.47156 69.9572 12.6668 69.9572 17.0412Z" fill="#292A2E"/>
<path d="M129.737 184.795C122.31 184.795 115.051 182.176 108.876 177.269C102.701 172.362 97.8886 165.387 95.0466 157.227C92.2047 149.067 91.4611 140.088 92.9099 131.425C94.3587 122.762 97.9349 114.805 103.186 108.559C108.437 102.314 115.128 98.0605 122.411 96.3374C129.695 94.6143 137.245 95.4987 144.106 98.8787C150.967 102.259 156.831 107.983 160.957 115.327C165.083 122.67 167.285 131.305 167.285 140.137C167.274 151.977 163.314 163.328 156.275 171.7C149.236 180.072 139.692 184.781 129.737 184.795ZM129.737 96.8903C122.545 96.8903 115.515 99.4267 109.535 104.179C103.555 108.931 98.8948 115.685 96.1427 123.587C93.3905 131.49 92.6704 140.185 94.0735 148.574C95.4765 156.963 98.9396 164.669 104.025 170.717C109.11 176.765 115.589 180.884 122.643 182.553C129.696 184.221 137.008 183.365 143.652 180.092C150.296 176.819 155.975 171.276 159.971 164.164C163.966 157.052 166.099 148.69 166.099 140.137C166.088 128.671 162.254 117.678 155.437 109.57C148.62 101.462 139.377 96.9007 129.737 96.8875V96.8903Z" fill="#292A2E"/>
<path d="M239.767 184.795C232.34 184.795 225.081 182.176 218.906 177.269C212.731 172.362 207.919 165.387 205.077 157.227C202.235 149.067 201.491 140.088 202.94 131.425C204.389 122.762 207.965 114.805 213.216 108.559C218.467 102.314 225.158 98.0605 232.442 96.3374C239.725 94.6143 247.275 95.4987 254.136 98.8787C260.997 102.259 266.861 107.983 270.987 115.327C275.113 122.67 277.315 131.305 277.315 140.137C277.304 151.977 273.344 163.328 266.305 171.7C259.266 180.072 249.722 184.781 239.767 184.795ZM239.767 96.8903C232.575 96.8903 225.545 99.4267 219.565 104.179C213.586 108.931 208.925 115.685 206.173 123.587C203.421 131.49 202.701 140.185 204.104 148.574C205.507 156.963 208.97 164.669 214.055 170.717C219.14 176.765 225.619 180.884 232.673 182.553C239.726 184.221 247.038 183.365 253.682 180.092C260.326 176.819 266.005 171.276 270.001 164.164C273.996 157.052 276.129 148.69 276.129 140.137C276.118 128.671 272.284 117.678 265.467 109.57C258.65 101.462 249.408 96.9007 239.767 96.8875V96.8903Z" fill="#292A2E"/>
<path d="M349.798 184.795C342.372 184.795 335.112 182.176 328.937 177.269C322.763 172.362 317.95 165.387 315.108 157.227C312.266 149.067 311.523 140.088 312.971 131.425C314.42 122.762 317.996 114.805 323.247 108.559C328.499 102.314 335.189 98.0605 342.473 96.3374C349.756 94.6143 357.306 95.4987 364.167 98.8787C371.028 102.259 376.893 107.983 381.018 115.327C385.144 122.67 387.346 131.305 387.346 140.137C387.335 151.977 383.375 163.328 376.336 171.7C369.297 180.072 359.753 184.781 349.798 184.795ZM349.798 96.8903C342.606 96.8903 335.576 99.4267 329.597 104.179C323.617 108.931 318.956 115.685 316.204 123.587C313.452 131.49 312.732 140.185 314.135 148.574C315.538 156.963 319.001 164.669 324.086 170.717C329.172 176.765 335.651 180.884 342.704 182.553C349.758 184.221 357.069 183.365 363.713 180.092C370.358 176.819 376.036 171.276 380.032 164.164C384.027 157.052 386.16 148.69 386.16 140.137C386.15 128.671 382.315 117.678 375.498 109.57C368.682 101.462 359.439 96.9007 349.798 96.8875V96.8903Z" fill="#292A2E"/>
<path opacity="0.6" d="M373.172 146.57V118.765H346.197V140.581H366.142L373.172 146.57Z" fill="#F72020"/>
<path d="M326.423 166.777V129.172H362.906V158.677H335.931L326.423 166.777Z" fill="#F72020"/>
<path d="M334.693 147.974C336.439 147.974 337.854 146.29 337.854 144.213C337.854 142.137 336.439 140.453 334.693 140.453C332.947 140.453 331.531 142.137 331.531 144.213C331.531 146.29 332.947 147.974 334.693 147.974Z" fill="white"/>
<path d="M344.665 147.974C346.411 147.974 347.826 146.29 347.826 144.213C347.826 142.137 346.411 140.453 344.665 140.453C342.919 140.453 341.503 142.137 341.503 144.213C341.503 146.29 342.919 147.974 344.665 147.974Z" fill="white"/>
<path d="M354.637 147.974C356.383 147.974 357.798 146.29 357.798 144.213C357.798 142.137 356.383 140.453 354.637 140.453C352.891 140.453 351.475 142.137 351.475 144.213C351.475 146.29 352.891 147.974 354.637 147.974Z" fill="white"/>
<path d="M148.444 153.801C148.808 154.089 149.064 154.533 149.159 155.04C149.255 155.547 149.183 156.078 148.959 156.524L146.913 160.577C146.371 161.673 145.495 162.479 144.466 162.827C141.066 163.936 133.57 164.159 121.553 149.869C109.537 135.58 109.726 126.659 110.658 122.618C110.951 121.394 111.628 120.351 112.549 119.705L115.958 117.273C116.333 117.006 116.779 116.921 117.205 117.035C117.632 117.149 118.004 117.454 118.246 117.887L123.681 127.582C123.918 128.007 124.012 128.522 123.943 129.026C123.875 129.529 123.648 129.983 123.31 130.296L120.258 133.118C119.937 133.412 119.716 133.833 119.635 134.304C119.553 134.775 119.616 135.265 119.812 135.686C120.707 137.602 121.556 139.861 125.759 144.866C129.963 149.871 131.869 150.875 133.478 151.94C133.832 152.173 134.244 152.248 134.64 152.15C135.036 152.052 135.389 151.789 135.636 151.407L138.009 147.779C138.272 147.376 138.654 147.107 139.077 147.025C139.5 146.943 139.934 147.055 140.291 147.338L148.444 153.801Z" fill="#F72020"/>
<path opacity="0.6" d="M259.117 155.833H220.569C220.136 155.836 219.719 155.634 219.411 155.271C219.103 154.908 218.928 154.415 218.926 153.899L218.791 126.421C218.79 126.194 218.827 125.968 218.899 125.757C218.971 125.546 219.078 125.354 219.212 125.193C219.347 125.031 219.507 124.902 219.683 124.814C219.86 124.726 220.049 124.68 220.241 124.679L259.144 124.442C259.53 124.439 259.902 124.619 260.176 124.942C260.451 125.265 260.606 125.704 260.608 126.164L260.743 153.879C260.744 154.134 260.703 154.387 260.622 154.624C260.541 154.86 260.421 155.075 260.27 155.257C260.119 155.438 259.94 155.582 259.742 155.681C259.544 155.78 259.332 155.832 259.117 155.833Z" fill="#F72020"/>
<path d="M260.194 124.96C257.892 126.971 241.177 141.603 241.159 141.617C240.705 141.92 240.191 142.073 239.671 142.061C239.151 142.048 238.642 141.871 238.199 141.547L219.187 125.229C219.322 125.056 219.486 124.918 219.668 124.824C219.849 124.729 220.045 124.68 220.244 124.678L259.144 124.438C259.339 124.438 259.533 124.483 259.713 124.573C259.893 124.663 260.057 124.795 260.194 124.96Z" fill="#F72020"/>
<path d="M419.745 158.854C427.211 158.854 433.264 151.655 433.264 142.776C433.264 133.896 427.211 126.697 419.745 126.697C412.279 126.697 406.227 133.896 406.227 142.776C406.227 151.655 412.279 158.854 419.745 158.854Z" fill="#FF7E36"/>
<path d="M413.41 141.252C413.062 141.253 412.722 141.132 412.432 140.904C412.141 140.677 411.913 140.354 411.775 139.974C411.532 139.302 405.873 123.239 412.019 99.6757C418.677 74.1516 441.867 73.8546 442.1 73.8546C442.572 73.8546 443.025 74.0776 443.359 74.4745C443.693 74.8714 443.88 75.4098 443.88 75.9711C443.88 76.5324 443.693 77.0708 443.359 77.4677C443.025 77.8646 442.572 78.0876 442.1 78.0876C441.253 78.0876 421.287 78.4199 415.415 100.929C409.655 123.011 414.986 138.145 415.04 138.296C415.157 138.618 415.205 138.969 415.179 139.318C415.154 139.668 415.055 140.004 414.894 140.297C414.732 140.59 414.511 140.831 414.252 140.997C413.992 141.164 413.702 141.251 413.407 141.251L413.41 141.252Z" fill="#FF7E36"/>
<path d="M414.851 158.854C422.317 158.854 428.37 151.655 428.37 142.776C428.37 133.896 422.317 126.697 414.851 126.697C407.385 126.697 401.332 133.896 401.332 142.776C401.332 151.655 407.385 158.854 414.851 158.854Z" fill="#FF7E36"/>
<path opacity="0.3" d="M414.851 158.854C422.317 158.854 428.37 151.655 428.37 142.776C428.37 133.896 422.317 126.697 414.851 126.697C407.385 126.697 401.332 133.896 401.332 142.776C401.332 151.655 407.385 158.854 414.851 158.854Z" fill="white"/>
<path d="M418.095 158.854C425.561 158.854 431.613 151.655 431.613 142.776C431.613 133.896 425.561 126.697 418.095 126.697C410.628 126.697 404.576 133.896 404.576 142.776C404.576 151.655 410.628 158.854 418.095 158.854Z" fill="#FF7E36"/>
<path d="M481.862 113.846C481.862 113.846 486.205 138.598 491.392 146.087C506.326 167.645 512.88 193.542 502.164 209.338C491.448 225.133 416.798 237.892 407.255 207.041C399.223 181.068 407.84 176.469 407.945 153.964C407.993 143.78 409.177 122.304 409.177 122.304" fill="#0A0A0A"/>
<path d="M419.472 193.946C419.608 193.925 421.123 223.809 450.314 221.204C470.522 219.403 477.727 193.901 478.193 193.901C476.014 193.351 472.346 192.55 471.378 191.936C468.196 189.902 464.26 187.786 463.233 180.436C462.639 176.203 463.645 154.529 463.336 150.241L432.316 158.476C432.75 167.527 435.783 188.512 425.15 192.226C423.379 192.844 421.473 193.41 419.472 193.946Z" fill="#E98862"/>
<path opacity="0.5" d="M431.878 183.654C432.364 181.792 432.677 179.872 432.811 177.928C433.152 173.493 433.084 169.027 432.608 164.61C438.913 163.598 444.852 160.503 449.751 155.677C450.328 158.207 453.495 169.262 452.618 171.666C450.961 176.212 443.171 183.654 431.878 183.654Z" fill="#0C0C0C"/>
<path d="M437.401 177.089C449.68 176.541 464.707 168.259 465.779 148.542L466.747 130.751C467.818 111.033 459.98 94.3795 444.371 93.1788C428.761 91.9794 416.224 107.065 415.152 126.783L414.724 134.659C414.313 142.227 415.493 178.067 437.401 177.089Z" fill="#E98862"/>
<path opacity="0.1" d="M442.251 150.702C444.277 150.665 445.902 149.202 445.879 147.434C445.856 145.667 444.195 144.263 442.168 144.3C440.142 144.337 438.517 145.8 438.54 147.568C438.563 149.336 440.224 150.739 442.251 150.702Z" fill="#0C0C0C"/>
<path opacity="0.1" d="M420.387 147.122C420.405 148.886 418.781 150.35 416.755 150.39C416.404 150.396 416.054 150.359 415.71 150.279C415.382 148.223 415.151 146.23 414.993 144.377C415.528 144.124 416.098 143.991 416.674 143.987C418.703 143.947 420.363 145.35 420.387 147.122Z" fill="#0C0C0C"/>
<path d="M419.834 133.841C420.895 133.841 421.754 132.819 421.754 131.558C421.754 130.296 420.895 129.274 419.834 129.274C418.774 129.274 417.914 130.296 417.914 131.558C417.914 132.819 418.774 133.841 419.834 133.841Z" fill="#0C0C0C"/>
<path d="M438.834 135.53C439.895 135.53 440.755 134.507 440.755 133.246C440.755 131.985 439.895 130.962 438.834 130.962C437.774 130.962 436.914 131.985 436.914 133.246C436.914 134.507 437.774 135.53 438.834 135.53Z" fill="#0C0C0C"/>
<path opacity="0.5" d="M429.81 151.079H429.78C429.147 151.025 428.517 150.929 427.893 150.793C426.961 150.581 425.727 150.185 425.781 149.199C425.84 148.075 429.088 136.152 429.459 134.796C429.494 134.682 429.565 134.589 429.657 134.536C429.749 134.483 429.854 134.474 429.952 134.511C430.049 134.549 430.13 134.63 430.178 134.737C430.226 134.844 430.237 134.969 430.21 135.086C428.824 140.166 426.61 148.503 426.569 149.26C426.706 149.587 428.262 150.02 429.832 150.142C429.933 150.151 430.027 150.206 430.095 150.295C430.164 150.385 430.2 150.502 430.197 150.623C430.195 150.743 430.153 150.858 430.081 150.943C430.009 151.028 429.912 151.077 429.811 151.08L429.81 151.079Z" fill="#0C0C0C"/>
<path opacity="0.5" d="M432.93 159.068C430.402 159.049 427.914 158.324 425.665 156.951C425.618 156.924 425.577 156.886 425.542 156.84C425.508 156.794 425.482 156.74 425.465 156.682C425.431 156.564 425.438 156.435 425.484 156.323C425.53 156.211 425.611 156.126 425.71 156.086C425.809 156.045 425.918 156.053 426.012 156.108C430.862 158.93 435.384 158.84 439.084 155.847C439.158 155.784 439.236 155.725 439.316 155.671C439.408 155.621 439.514 155.615 439.61 155.656C439.706 155.696 439.786 155.779 439.832 155.887C439.878 155.995 439.887 156.121 439.857 156.237C439.827 156.353 439.761 156.45 439.671 156.509C439.642 156.529 439.594 156.569 439.527 156.624C437.581 158.201 435.284 159.052 432.93 159.068Z" fill="#0C0C0C"/>
<path d="M479.385 135.006L465.402 134.026C454.53 130.558 449.191 109.694 449.191 109.694C449.191 109.694 440.494 126.118 409.152 122.287C409.152 122.287 407.624 70.1028 454.216 78.9384C469.199 81.7801 481.451 97.4329 482.561 120.883C483.338 137.318 479.385 135.006 479.385 135.006Z" fill="#0A0A0A"/>
<path d="M464.483 154.474C469.228 154.84 473.4 149.099 473.707 143.457C474.014 137.815 470.338 134.408 465.594 134.044L462.944 137.636L460.404 154.161L464.483 154.474Z" fill="#E98862"/>
<path d="M425.171 126.393C423.905 125.606 422.487 125.232 421.06 125.309C420.343 125.342 419.634 125.504 418.957 125.788C418.274 126.071 417.624 126.455 417.021 126.93L417.002 126.944C416.935 126.993 416.854 127.009 416.777 126.988C416.7 126.967 416.633 126.912 416.591 126.833C416.548 126.754 416.533 126.659 416.548 126.567C416.564 126.475 416.609 126.394 416.674 126.341C417.309 125.803 417.998 125.361 418.726 125.028C419.458 124.687 420.229 124.48 421.012 124.412C422.599 124.264 424.19 124.624 425.62 125.456C425.728 125.52 425.81 125.632 425.848 125.768C425.886 125.904 425.877 126.052 425.823 126.18C425.769 126.307 425.675 126.405 425.561 126.45C425.447 126.495 425.323 126.485 425.215 126.421L425.204 126.414L425.171 126.393Z" fill="#0C0C0C"/>
<path d="M437.848 126.442C439.354 125.828 440.97 125.706 442.529 126.089C443.3 126.272 444.043 126.592 444.734 127.038C445.421 127.476 446.059 128.016 446.632 128.645C446.69 128.707 446.726 128.793 446.731 128.886C446.736 128.979 446.712 129.07 446.661 129.141C446.611 129.213 446.54 129.258 446.462 129.268C446.385 129.278 446.307 129.252 446.245 129.195L446.227 129.178C445.679 128.617 445.074 128.14 444.426 127.758C443.784 127.375 443.097 127.11 442.389 126.972C440.981 126.684 439.535 126.845 438.197 127.438L438.164 127.454C438.109 127.479 438.049 127.492 437.99 127.491C437.93 127.489 437.872 127.474 437.817 127.445C437.763 127.417 437.713 127.376 437.672 127.325C437.631 127.274 437.599 127.214 437.577 127.148C437.555 127.082 437.545 127.011 437.546 126.94C437.547 126.87 437.56 126.8 437.584 126.735C437.608 126.67 437.642 126.611 437.685 126.562C437.728 126.513 437.779 126.475 437.834 126.449L437.848 126.442Z" fill="#0C0C0C"/>
<path opacity="0.52" d="M432.854 163.52C432.397 163.525 431.941 163.483 431.49 163.396C431.439 163.387 431.389 163.365 431.345 163.333C431.301 163.301 431.263 163.258 431.232 163.209C431.202 163.159 431.18 163.102 431.168 163.042C431.156 162.982 431.154 162.92 431.162 162.859C431.17 162.798 431.188 162.74 431.215 162.687C431.242 162.635 431.278 162.589 431.32 162.553C431.362 162.517 431.409 162.491 431.46 162.477C431.51 162.462 431.563 162.46 431.614 162.469C434.328 162.983 435.696 161.576 435.754 161.516C435.831 161.432 435.933 161.389 436.038 161.395C436.142 161.401 436.241 161.457 436.311 161.549C436.381 161.641 436.417 161.763 436.412 161.887C436.407 162.012 436.36 162.129 436.283 162.212C435.301 163.106 434.09 163.568 432.854 163.52Z" fill="#0C0C0C"/>
<path d="M465.554 133.779C455.936 131.195 452.045 124.159 450.474 118.711C449.445 115.075 449.066 111.224 449.361 107.404L449.658 107.451C449.368 111.221 449.744 115.022 450.76 118.61C452.309 123.967 456.143 130.885 465.623 133.436L465.554 133.779Z" fill="#0C0C0C"/>
<path d="M317.656 205.45L308.137 184.102C307.927 183.633 307.638 183.221 307.288 182.893C306.937 182.564 306.533 182.326 306.101 182.193C305.669 182.06 305.218 182.036 304.778 182.122C304.337 182.207 303.917 182.401 303.543 182.691C302.866 183.251 302.388 184.09 302.202 185.045C302.015 186.001 302.134 187.004 302.534 187.862L304.575 192.439L292.601 181.548C291.288 180.309 289.01 179.789 287.939 181.633C287.488 182.31 287.243 183.15 287.245 184.014C287.247 184.878 287.494 185.716 287.948 186.391C287.935 186.403 287.923 186.417 287.912 186.431C287.905 186.444 287.903 186.458 287.896 186.471L285.871 184.557C285.496 184.203 285.059 183.954 284.592 183.827C284.126 183.699 283.641 183.698 283.174 183.821C282.706 183.945 282.268 184.191 281.891 184.542C281.514 184.893 281.207 185.339 280.993 185.849C280.671 186.659 280.591 187.577 280.769 188.449C280.947 189.32 281.371 190.093 281.97 190.637L282.833 191.45C282.825 191.49 282.822 191.532 282.826 191.574C282.137 191.186 281.354 191.101 280.617 191.337C279.881 191.572 279.238 192.111 278.805 192.858C278.352 193.692 278.179 194.698 278.322 195.677C278.465 196.656 278.913 197.534 279.576 198.137L281.717 200.155C281.67 200.152 281.623 200.162 281.579 200.185C281.536 200.208 281.498 200.243 281.469 200.287C281.436 200.341 281.417 200.405 281.414 200.472C280.719 200.329 280.004 200.461 279.379 200.849C278.754 201.236 278.252 201.857 277.953 202.616C277.652 203.421 277.588 204.324 277.772 205.177C277.955 206.03 278.376 206.785 278.965 207.319L297.029 224.35C299.557 226.733 302.624 228.163 305.84 228.459C309.055 228.754 312.271 227.901 315.076 226.008C317.494 224.376 319.282 221.688 320.06 218.513C320.838 215.338 320.545 211.927 319.242 209.006L317.656 205.45Z" fill="#E98862"/>
<g opacity="0.2">
<path d="M299.756 197.24C299.707 197.311 299.637 197.358 299.56 197.369C299.483 197.38 299.406 197.354 299.344 197.298L287.968 186.924C287.937 186.896 287.911 186.861 287.892 186.82C287.872 186.78 287.86 186.736 287.854 186.69C287.849 186.644 287.852 186.597 287.862 186.553C287.872 186.508 287.889 186.466 287.913 186.429C287.937 186.392 287.966 186.361 288 186.338C288.034 186.315 288.071 186.3 288.11 186.294C288.149 186.288 288.188 186.291 288.225 186.303C288.263 186.315 288.298 186.336 288.329 186.364L299.705 196.739C299.768 196.796 299.808 196.88 299.818 196.972C299.829 197.065 299.808 197.158 299.76 197.233L299.756 197.24Z" fill="#0C0C0C"/>
</g>
<g opacity="0.2">
<path d="M296.047 203.333C295.998 203.405 295.928 203.451 295.851 203.462C295.774 203.473 295.696 203.448 295.635 203.392L282.941 191.814C282.879 191.757 282.838 191.673 282.827 191.58C282.817 191.488 282.838 191.394 282.886 191.32C282.935 191.249 283.005 191.202 283.082 191.19C283.159 191.178 283.238 191.201 283.301 191.254L295.997 202.829C296.059 202.886 296.1 202.97 296.11 203.063C296.121 203.155 296.1 203.249 296.052 203.323L296.047 203.333Z" fill="#0C0C0C"/>
</g>
<g opacity="0.2">
<path d="M292.062 209.96C292.014 210.032 291.943 210.079 291.866 210.089C291.789 210.1 291.712 210.075 291.651 210.019L281.523 200.783C281.461 200.726 281.42 200.642 281.41 200.549C281.399 200.457 281.42 200.363 281.468 200.288C281.516 200.214 281.587 200.166 281.665 200.153C281.743 200.141 281.822 200.166 281.884 200.223L292.011 209.461C292.073 209.518 292.114 209.602 292.125 209.694C292.135 209.787 292.114 209.881 292.066 209.955L292.062 209.96Z" fill="#0C0C0C"/>
</g>
<path d="M385.455 206.633L354.676 270.799L323.218 202.484L285.626 227.447L336.235 333.214C337.874 336.613 340.159 339.507 342.908 341.665C347.52 345.26 353.142 346.528 358.54 345.192C363.937 343.855 368.667 340.024 371.689 334.54L371.949 334.068L425.929 236.1L385.455 206.633Z" fill="#FF7E36"/>
<path d="M317.656 205.449L308.137 184.102C307.927 183.633 307.638 183.221 307.288 182.893C306.937 182.564 306.533 182.326 306.101 182.193C305.669 182.06 305.218 182.036 304.778 182.122C304.337 182.207 303.917 182.401 303.543 182.691C302.866 183.251 302.388 184.09 302.202 185.045C302.015 186.001 302.134 187.004 302.534 187.862L304.575 192.439L307.749 200.704" fill="#E98862"/>
<path d="M450.858 213.733C471.081 212.6 471.932 192.186 471.932 192.186C471.932 192.186 481.952 192.955 488.613 194.028C499.519 195.782 506.712 200.18 512.437 206.989C517.763 213.324 521.005 220.176 517.574 263.93C515.09 295.607 516.838 365.295 516.838 365.295H394.791C394.791 365.295 387.473 273.958 386.453 259.697C384.506 232.473 376.532 217.128 387.677 203.104C395.759 192.933 416.624 192.186 425.022 192.187C425.159 192.187 423.318 215.278 450.858 213.733Z" fill="#FF7E36"/>
<path d="M387.163 255.144C387.158 255.051 387.122 254.964 387.063 254.902C387.004 254.84 386.927 254.808 386.848 254.814C386.769 254.82 386.696 254.863 386.644 254.933C386.592 255.003 386.565 255.095 386.57 255.189L389.052 302.336C389.056 302.42 389.086 302.5 389.136 302.561C389.186 302.621 389.253 302.658 389.324 302.665C389.338 302.666 389.352 302.666 389.366 302.665C389.405 302.662 389.443 302.65 389.478 302.63C389.513 302.609 389.545 302.581 389.57 302.546C389.596 302.511 389.616 302.471 389.629 302.427C389.641 302.383 389.646 302.337 389.644 302.29" fill="#0C0C0C"/>
<path d="M414.053 323.967L394.31 318.262C393.877 318.137 393.426 318.12 392.986 318.214C392.547 318.307 392.128 318.508 391.758 318.804C391.387 319.101 391.073 319.485 390.834 319.934C390.595 320.383 390.438 320.886 390.372 321.411C390.275 322.384 390.485 323.366 390.962 324.166C391.439 324.966 392.149 325.526 392.954 325.739L397.187 326.962L382.39 330.382C380.74 330.728 378.9 332.409 379.349 334.586C379.475 335.437 379.84 336.212 380.385 336.784C380.929 337.356 381.621 337.692 382.347 337.737C382.345 337.756 382.345 337.775 382.347 337.794C382.347 337.81 382.357 337.821 382.361 337.836L379.815 338.369C379.344 338.469 378.897 338.692 378.507 339.022C378.118 339.353 377.795 339.783 377.562 340.281C377.33 340.779 377.194 341.332 377.164 341.9C377.134 342.469 377.211 343.038 377.39 343.566C377.685 344.391 378.21 345.071 378.876 345.491C379.542 345.912 380.309 346.047 381.049 345.875L382.132 345.648C382.152 345.682 382.177 345.712 382.206 345.736C381.504 346.092 380.932 346.732 380.591 347.544C380.25 348.355 380.162 349.284 380.345 350.165C380.567 351.123 381.085 351.945 381.795 352.468C382.505 352.991 383.355 353.177 384.175 352.987L386.866 352.423C386.833 352.463 386.808 352.511 386.793 352.565C386.779 352.618 386.776 352.675 386.784 352.73C386.796 352.796 386.823 352.856 386.864 352.903C386.312 353.425 385.921 354.149 385.749 354.963C385.578 355.776 385.636 356.634 385.915 357.404C386.221 358.207 386.746 358.862 387.404 359.266C388.063 359.669 388.817 359.796 389.544 359.626L412.246 354.863C415.422 354.197 418.358 352.418 420.678 349.755C422.998 347.091 424.597 343.664 425.268 339.912C425.848 336.678 425.344 333.302 423.864 330.502C422.384 327.702 420.044 325.699 417.342 324.918L414.053 323.967Z" fill="#E98862"/>
<g opacity="0.2">
<path d="M397.008 334.438C397.021 334.529 397.003 334.623 396.959 334.699C396.914 334.775 396.847 334.827 396.77 334.844L382.695 338.075C382.656 338.084 382.617 338.084 382.579 338.074C382.541 338.065 382.505 338.047 382.472 338.021C382.44 337.995 382.412 337.962 382.391 337.923C382.37 337.884 382.355 337.841 382.347 337.795C382.34 337.75 382.34 337.703 382.348 337.658C382.356 337.612 382.371 337.569 382.393 337.531C382.415 337.493 382.443 337.46 382.475 337.434C382.508 337.409 382.544 337.391 382.583 337.382L396.658 334.151C396.697 334.142 396.736 334.142 396.774 334.152C396.813 334.161 396.849 334.179 396.881 334.206C396.914 334.232 396.941 334.265 396.963 334.304C396.984 334.343 396.999 334.387 397.006 334.433L397.008 334.438Z" fill="#0C0C0C"/>
</g>
<g opacity="0.2">
<path d="M398.38 341.783C398.392 341.874 398.375 341.967 398.33 342.043C398.286 342.118 398.219 342.17 398.142 342.187L382.434 345.794C382.395 345.803 382.356 345.802 382.318 345.793C382.279 345.783 382.243 345.765 382.211 345.739C382.179 345.712 382.151 345.679 382.13 345.64C382.109 345.601 382.094 345.557 382.087 345.512C382.075 345.42 382.092 345.326 382.136 345.249C382.18 345.173 382.248 345.119 382.324 345.099L398.033 341.493C398.071 341.484 398.11 341.484 398.149 341.494C398.187 341.503 398.223 341.522 398.255 341.548C398.288 341.574 398.315 341.608 398.337 341.647C398.358 341.686 398.372 341.729 398.38 341.775V341.783Z" fill="#0C0C0C"/>
</g>
<g opacity="0.2">
<path d="M399.899 349.726C399.912 349.817 399.894 349.911 399.85 349.986C399.805 350.062 399.738 350.114 399.661 350.131L387.131 353.008C387.093 353.017 387.054 353.017 387.015 353.008C386.977 352.998 386.941 352.98 386.909 352.954C386.876 352.928 386.849 352.895 386.827 352.856C386.806 352.818 386.791 352.775 386.784 352.729C386.776 352.684 386.776 352.637 386.784 352.591C386.792 352.546 386.807 352.503 386.829 352.464C386.851 352.426 386.879 352.393 386.911 352.368C386.944 352.342 386.98 352.324 387.018 352.316L399.549 349.439C399.587 349.43 399.627 349.43 399.665 349.44C399.703 349.449 399.74 349.467 399.772 349.494C399.804 349.52 399.832 349.553 399.853 349.592C399.875 349.631 399.889 349.675 399.896 349.721L399.899 349.726Z" fill="#0C0C0C"/>
</g>
<path d="M412.086 364.099L518.169 364.787C521.586 365.23 525.042 364.724 528.267 363.311C531.492 361.898 534.398 359.615 536.756 356.641C539.115 353.668 540.862 350.085 541.861 346.174C542.859 342.263 543.082 338.129 542.512 334.098L518.879 221.502C518.41 218.059 517.373 214.761 515.828 211.797C514.283 208.833 512.261 206.262 509.878 204.231C507.494 202.199 504.797 200.749 501.941 199.962C499.084 199.175 496.125 199.067 493.234 199.645C490.342 200.223 487.575 201.476 485.092 203.33C482.609 205.185 480.459 207.605 478.765 210.451C477.071 213.297 475.867 216.514 475.222 219.916C474.577 223.318 474.504 226.837 475.007 230.273L493.132 315.099L412.599 318.248L412.086 364.099Z" fill="#FF7E36"/>
<path d="M506.998 314.743C507.072 314.742 507.144 314.708 507.198 314.648C507.253 314.587 507.286 314.505 507.291 314.416C507.297 314.328 507.274 314.24 507.228 314.171C507.181 314.102 507.115 314.056 507.041 314.042L493.303 314.635C493.264 314.628 493.225 314.629 493.187 314.64C493.149 314.651 493.113 314.671 493.081 314.699C493.05 314.726 493.024 314.761 493.004 314.801C492.984 314.841 492.971 314.885 492.966 314.931C492.954 315.024 492.974 315.118 493.021 315.193C493.067 315.268 493.137 315.318 493.215 315.332L506.953 314.739C506.968 314.742 506.983 314.743 506.998 314.743Z" fill="#0C0C0C"/>
<path d="M515.084 365.295C515.162 365.301 515.24 365.269 515.299 365.207C515.358 365.146 515.394 365.058 515.399 364.965C515.405 364.871 515.378 364.779 515.326 364.709C515.274 364.638 515.201 364.595 515.122 364.589L412.707 363.829L413.156 318.678L493.207 315.332C493.253 315.339 493.3 315.333 493.344 315.315C493.388 315.297 493.427 315.267 493.46 315.227C493.492 315.187 493.516 315.139 493.53 315.086C493.543 315.033 493.546 314.977 493.539 314.923L484.809 263.937C484.803 263.891 484.789 263.847 484.769 263.807C484.748 263.768 484.721 263.734 484.689 263.707C484.658 263.68 484.621 263.66 484.583 263.65C484.545 263.64 484.506 263.639 484.467 263.648C484.39 263.663 484.32 263.715 484.275 263.791C484.229 263.867 484.211 263.962 484.224 264.054L492.884 314.567L412.931 317.928C412.892 317.922 412.852 317.925 412.814 317.938C412.775 317.95 412.74 317.972 412.708 318.001C412.677 318.03 412.651 318.066 412.632 318.107C412.613 318.149 412.601 318.194 412.597 318.241L412.084 364.098C412.075 364.19 412.098 364.282 412.145 364.354C412.193 364.427 412.263 364.474 412.34 364.486L515.043 365.291C515.056 365.293 515.07 365.295 515.084 365.295Z" fill="#0C0C0C"/>
<path d="M362.118 352.046L333.097 245.948C332.587 244.083 331.594 242.459 330.261 241.307C328.927 240.154 327.321 239.534 325.672 239.534H207.441C206.208 239.534 204.994 239.881 203.895 240.546C202.797 241.212 201.847 242.177 201.123 243.363C200.399 244.549 199.921 245.922 199.728 247.37C199.536 248.818 199.634 250.299 200.016 251.693L229.036 357.792C229.546 359.657 230.539 361.281 231.873 362.433C233.207 363.586 234.813 364.206 236.461 364.206H354.692C355.925 364.206 357.14 363.859 358.238 363.193C359.336 362.528 360.286 361.562 361.01 360.376C361.735 359.19 362.213 357.817 362.405 356.369C362.598 354.921 362.499 353.44 362.118 352.046Z" fill="#292A2E"/>
<path d="M417.589 355.603H338.445C336.473 355.603 334.874 357.505 334.874 359.85V359.959C334.874 362.304 336.473 364.206 338.445 364.206H417.589C419.561 364.206 421.159 362.304 421.159 359.959V359.85C421.159 357.505 419.561 355.603 417.589 355.603Z" fill="#292A2E"/>
<path d="M279.287 319.677C286.136 319.677 291.688 313.074 291.688 304.929C291.688 296.784 286.136 290.181 279.287 290.181C272.439 290.181 266.887 296.784 266.887 304.929C266.887 313.074 272.439 319.677 279.287 319.677Z" fill="white"/>
<path d="M472.548 140.363C472.076 140.363 471.623 140.14 471.29 139.743C470.956 139.346 470.768 138.808 470.768 138.246V114.137C470.768 101.868 467.913 92.1473 462.511 86.025C457.392 80.2216 450.044 77.5528 440.682 78.0868C440.448 78.1017 440.214 78.0613 439.993 77.9682C439.772 77.875 439.568 77.7308 439.394 77.5438C439.22 77.3568 439.079 77.1308 438.979 76.8787C438.879 76.6267 438.821 76.3535 438.81 76.0749C438.799 75.7964 438.834 75.5179 438.913 75.2556C438.993 74.9932 439.115 74.7521 439.273 74.5462C439.431 74.3402 439.622 74.1735 439.835 74.0555C440.047 73.9376 440.277 73.8707 440.511 73.8588C450.887 73.2627 459.117 76.328 464.969 82.9597C471.093 89.901 474.33 100.682 474.33 114.136V138.246C474.33 138.524 474.284 138.799 474.194 139.056C474.105 139.313 473.973 139.547 473.808 139.744C473.642 139.94 473.446 140.096 473.23 140.202C473.013 140.309 472.782 140.363 472.548 140.363Z" fill="#FF7E36"/>
<path d="M469.888 158.854C477.354 158.854 483.407 151.655 483.407 142.776C483.407 133.896 477.354 126.697 469.888 126.697C462.422 126.697 456.369 133.896 456.369 142.776C456.369 151.655 462.422 158.854 469.888 158.854Z" fill="#FF7E36"/>
<path d="M470.41 154.82C470.315 154.738 470.208 154.68 470.094 154.648C469.981 154.615 469.863 154.61 469.747 154.632C469.632 154.654 469.521 154.703 469.422 154.776C469.322 154.849 469.236 154.944 469.167 155.057L468.133 156.756C466.866 158.834 465.203 160.526 463.28 161.693C461.358 162.861 459.231 163.471 457.072 163.475H440.614V163.061C440.614 162.499 440.427 161.961 440.093 161.564C439.759 161.167 439.306 160.944 438.834 160.944H433.264C432.793 160.944 432.34 161.167 432.006 161.564C431.672 161.961 431.485 162.499 431.485 163.061V166.159C431.485 166.721 431.672 167.259 432.006 167.656C432.34 168.053 432.793 168.276 433.264 168.276H438.834C439.306 168.276 439.759 168.053 440.093 167.656C440.427 167.259 440.614 166.721 440.614 166.159V165.595H457.072C459.512 165.591 461.916 164.901 464.089 163.581C466.262 162.261 468.142 160.349 469.575 158.001L470.609 156.301C470.678 156.189 470.728 156.061 470.755 155.925C470.783 155.79 470.787 155.649 470.769 155.511C470.75 155.374 470.709 155.242 470.647 155.123C470.586 155.004 470.505 154.901 470.41 154.82Z" fill="#FF7E36"/>
<path d="M473.132 158.854C480.598 158.854 486.65 151.655 486.65 142.776C486.65 133.896 480.598 126.697 473.132 126.697C465.665 126.697 459.613 133.896 459.613 142.776C459.613 151.655 465.665 158.854 473.132 158.854Z" fill="#FF7E36"/>
<path opacity="0.3" d="M473.132 158.854C480.598 158.854 486.65 151.655 486.65 142.776C486.65 133.896 480.598 126.697 473.132 126.697C465.665 126.697 459.613 133.896 459.613 142.776C459.613 151.655 465.665 158.854 473.132 158.854Z" fill="white"/>
<path d="M216.379 366H544.407C544.565 366 544.716 365.926 544.827 365.793C544.938 365.661 545.001 365.482 545.001 365.294C545.001 365.107 544.938 364.928 544.827 364.796C544.716 364.663 544.565 364.589 544.407 364.589H216.379C216.222 364.589 216.071 364.663 215.96 364.796C215.848 364.928 215.786 365.107 215.786 365.294C215.786 365.482 215.848 365.661 215.96 365.793C216.071 365.926 216.222 366 216.379 366Z" fill="#292A2E"/>
</svg>
