<svg id="Layer_1" data-name="Layer 1" xmlns="http://www.w3.org/2000/svg" viewBox="0 0 230.58 51.83"><path d="M107.56,58.54a.81.81,0,0,1,.6.22.74.74,0,0,1,.22.57,3.82,3.82,0,0,1,0,.56l-1.44,10.6a1,1,0,0,1-.3.61.84.84,0,0,1-.6.22.9.9,0,0,1-.9-.7L103,64.27l-1.93,6.35a.87.87,0,0,1-.9.7.89.89,0,0,1-.61-.23,1,1,0,0,1-.3-.61L97.85,59.91c0-.29,0-.48,0-.58a.71.71,0,0,1,.23-.57.79.79,0,0,1,.6-.22.7.7,0,0,1,.77.72l1.06,8.62,1.7-5.81a.81.81,0,0,1,.84-.68.87.87,0,0,1,.85.7L105.7,68l1.08-8.71A.71.71,0,0,1,107.56,58.54Z" transform="translate(-15.08 -19.67)" style="fill:gray"/><path d="M119.6,66.23c0,.61-.27.92-.81.92H112a2.93,2.93,0,0,0,3.1,2.95,3.28,3.28,0,0,0,1.54-.33,3.2,3.2,0,0,0,1.14-1.08.82.82,0,0,1,.65-.43.75.75,0,0,1,.56.22.72.72,0,0,1,.21.52,1.33,1.33,0,0,1-.23.68,4.3,4.3,0,0,1-3.78,1.82,4.67,4.67,0,0,1-3.47-1.37,5.21,5.21,0,0,1,0-7,4.55,4.55,0,0,1,3.4-1.37A4.43,4.43,0,0,1,118.31,63,4.27,4.27,0,0,1,119.6,66.23Zm-7.58-.4H118a2.74,2.74,0,0,0-.87-1.91,2.85,2.85,0,0,0-2-.75,3,3,0,0,0-2.1.74A2.83,2.83,0,0,0,112,65.83Z" transform="translate(-15.08 -19.67)" style="fill:gray"/><path d="M127,61.78a4.31,4.31,0,0,1,3.27,1.37,4.85,4.85,0,0,1,1.3,3.49,4.9,4.9,0,0,1-1.27,3.49A4.22,4.22,0,0,1,127,71.5a4,4,0,0,1-3.27-1.35v.27c0,.6-.27.9-.8.9s-.82-.3-.82-.9v-11c0-.6.27-.9.82-.9s.8.3.8.9v3.73a3.73,3.73,0,0,1,1.39-1A4.67,4.67,0,0,1,127,61.78Zm-.18,8.28a3,3,0,0,0,2.28-1,3.5,3.5,0,0,0,.89-2.47,3.46,3.46,0,0,0-.89-2.46,3.18,3.18,0,0,0-4.55,0,3.45,3.45,0,0,0-.88,2.46,3.49,3.49,0,0,0,.88,2.47A3,3,0,0,0,126.8,70.06Z" transform="translate(-15.08 -19.67)" style="fill:gray"/><path d="M139.29,71.5a3.33,3.33,0,0,1-2.45-.82,3.16,3.16,0,0,1-.83-2.35l0-4.84h-1.62a.8.8,0,0,1-.57-.19.64.64,0,0,1-.22-.53.65.65,0,0,1,.22-.53.85.85,0,0,1,.57-.19H136V59.44c0-.6.28-.9.83-.9s.79.3.79.9v2.61h3.55a.85.85,0,0,1,.57.19.65.65,0,0,1,.22.53.64.64,0,0,1-.22.53.8.8,0,0,1-.57.19h-3.55l0,4.72a2.07,2.07,0,0,0,.4,1.38,1.62,1.62,0,0,0,1.26.44,2.35,2.35,0,0,0,1.71-.74.91.91,0,0,1,.61-.33.82.82,0,0,1,.58.22.73.73,0,0,1,.21.54,1.06,1.06,0,0,1-.27.63A3.56,3.56,0,0,1,139.29,71.5Z" transform="translate(-15.08 -19.67)" style="fill:gray"/><path d="M154.7,66.23c0,.61-.27.92-.81.92h-6.81a2.93,2.93,0,0,0,3.1,2.95,3.28,3.28,0,0,0,1.54-.33,3.2,3.2,0,0,0,1.14-1.08.82.82,0,0,1,.65-.43.75.75,0,0,1,.56.22.72.72,0,0,1,.21.52,1.33,1.33,0,0,1-.23.68,4.3,4.3,0,0,1-3.78,1.82,4.67,4.67,0,0,1-3.47-1.37,5.21,5.21,0,0,1,0-7,4.55,4.55,0,0,1,3.4-1.37A4.43,4.43,0,0,1,153.41,63,4.27,4.27,0,0,1,154.7,66.23Zm-7.58-.4h5.94a2.74,2.74,0,0,0-.87-1.91,2.85,2.85,0,0,0-2-.75,3,3,0,0,0-2.1.74A2.83,2.83,0,0,0,147.12,65.83Z" transform="translate(-15.08 -19.67)" style="fill:gray"/><path d="M162.08,71.5a4.62,4.62,0,0,1-3.44-1.35,5.3,5.3,0,0,1,0-7,4.62,4.62,0,0,1,3.44-1.35,4.94,4.94,0,0,1,2.5.63,3.44,3.44,0,0,1,1.53,1.68,1.58,1.58,0,0,1,.11.48.67.67,0,0,1-.23.53.77.77,0,0,1-.55.21.8.8,0,0,1-.77-.54,2.59,2.59,0,0,0-1-1.15,2.93,2.93,0,0,0-1.55-.4,3,3,0,0,0-2.3.92,3.53,3.53,0,0,0-.85,2.5,3.57,3.57,0,0,0,.86,2.49,3,3,0,0,0,2.29.93,2.63,2.63,0,0,0,2.61-1.73.78.78,0,0,1,.75-.54.79.79,0,0,1,.78.78,1.41,1.41,0,0,1-.07.41,3.66,3.66,0,0,1-1.53,1.84A4.78,4.78,0,0,1,162.08,71.5Z" transform="translate(-15.08 -19.67)" style="fill:gray"/><path d="M173.81,61.78a3.65,3.65,0,0,1,3.89,3.93v4.71c0,.6-.26.9-.79.9s-.83-.3-.83-.9V65.94c0-1.81-.85-2.72-2.55-2.72a2.61,2.61,0,0,0-2,.75,2.79,2.79,0,0,0-.73,2v4.43c0,.6-.26.9-.79.9s-.83-.3-.83-.9V59.28c0-.6.28-.9.83-.9s.79.3.79.9V63A3.68,3.68,0,0,1,173.81,61.78Z" transform="translate(-15.08 -19.67)" style="fill:gray"/><path d="M118.7,54.22H99.93A2.19,2.19,0,0,1,97.68,52V22.17c0-1.67.78-2.5,2.35-2.5a2.19,2.19,0,0,1,1.69.66,2.6,2.6,0,0,1,.61,1.84V49.9H118.7a2.5,2.5,0,0,1,1.76.59,2,2,0,0,1,.64,1.57,2,2,0,0,1-.64,1.57A2.5,2.5,0,0,1,118.7,54.22Z" transform="translate(-15.08 -19.67)" style="fill:#333"/><path d="M135.7,55a12.74,12.74,0,0,1-9.43-3.72,12.9,12.9,0,0,1-3.7-9.51,13,13,0,0,1,3.63-9.5,12.33,12.33,0,0,1,9.26-3.73,12.07,12.07,0,0,1,8.79,3.43,11.62,11.62,0,0,1,3.51,8.67c0,1.67-.74,2.5-2.21,2.5H127a9.52,9.52,0,0,0,.64,3,7.9,7.9,0,0,0,3,3.68,8.55,8.55,0,0,0,4.8,1.32,7.88,7.88,0,0,0,7.3-3.82,2.17,2.17,0,0,1,1.76-1.18,2.07,2.07,0,0,1,1.52.59,2,2,0,0,1,.59,1.42A3.78,3.78,0,0,1,146,50Q142.51,55,135.7,55Zm-8.62-15.43H143.3a7.44,7.44,0,0,0-2.38-5.22,7.67,7.67,0,0,0-5.46-2,8.66,8.66,0,0,0-4.66,1.25,7.91,7.91,0,0,0-3,3.46A9.31,9.31,0,0,0,127.08,39.52Z" transform="translate(-15.08 -19.67)" style="fill:#333"/><path d="M164.32,55a12.73,12.73,0,0,1-9.43-3.72,12.9,12.9,0,0,1-3.7-9.51,13,13,0,0,1,3.62-9.5,12.36,12.36,0,0,1,9.26-3.73,12.11,12.11,0,0,1,8.8,3.43,11.65,11.65,0,0,1,3.5,8.67c0,1.67-.73,2.5-2.2,2.5H155.65a9.26,9.26,0,0,0,.63,3,8,8,0,0,0,3,3.68,8.55,8.55,0,0,0,4.8,1.32,7.91,7.91,0,0,0,7.31-3.82,2.15,2.15,0,0,1,1.76-1.18,2.07,2.07,0,0,1,1.52.59,2,2,0,0,1,.59,1.42,3.89,3.89,0,0,1-.64,1.86Q171.13,55,164.32,55Zm-8.63-15.43h16.22a7.47,7.47,0,0,0-2.37-5.22,7.71,7.71,0,0,0-5.47-2,8.65,8.65,0,0,0-4.65,1.25,8,8,0,0,0-3,3.46A9.31,9.31,0,0,0,155.69,39.52Z" transform="translate(-15.08 -19.67)" style="fill:#333"/><path d="M183.48,54.46a2.1,2.1,0,0,1-1.62-.63,2.54,2.54,0,0,1-.59-1.77V31.38a2.5,2.5,0,0,1,.59-1.76,2.07,2.07,0,0,1,1.62-.64,1.85,1.85,0,0,1,1.57.64,2.69,2.69,0,0,1,.54,1.71,7.83,7.83,0,0,1,1.61-1.47,9.47,9.47,0,0,1,5-1.37,10.21,10.21,0,0,1,5.73,1.57,7.61,7.61,0,0,1,2.21,2.25l.1-.09a9.46,9.46,0,0,1,8.08-3.73q4.86,0,7.6,2.55a9.09,9.09,0,0,1,2.74,7v14c0,1.6-.7,2.4-2.11,2.4a2.09,2.09,0,0,1-1.61-.63,2.49,2.49,0,0,1-.59-1.77V39a7,7,0,0,0-1.59-4.88,5.73,5.73,0,0,0-4.44-1.74,6,6,0,0,0-4.56,1.77A6.77,6.77,0,0,0,202.1,39v13c0,1.6-.71,2.4-2.11,2.4a2.13,2.13,0,0,1-1.62-.63,2.53,2.53,0,0,1-.58-1.77V39a7.06,7.06,0,0,0-1.55-4.9,5.57,5.57,0,0,0-4.38-1.72,6,6,0,0,0-4.61,1.77A6.77,6.77,0,0,0,185.59,39v13C185.59,53.66,184.88,54.46,183.48,54.46Z" transform="translate(-15.08 -19.67)" style="fill:#333"/><path d="M232.72,55a9.37,9.37,0,0,1-6.49-2.18,7.45,7.45,0,0,1-2.42-5.85,7,7,0,0,1,2.64-5.74,11.21,11.21,0,0,1,7.15-2.1,23.53,23.53,0,0,1,4.42.44,27.48,27.48,0,0,1,3.23.78V38.78a6.57,6.57,0,0,0-1.62-4.73,6,6,0,0,0-4.55-1.69,7.53,7.53,0,0,0-6.57,3.58,2.38,2.38,0,0,1-1.91,1.13,2,2,0,0,1-1.54-.57,2,2,0,0,1-.57-1.49,3.75,3.75,0,0,1,1-2.21q3.33-4.3,9.61-4.31a10.69,10.69,0,0,1,7.74,2.75,9.57,9.57,0,0,1,2.84,7.2V51.91c0,1.7-.75,2.55-2.26,2.55a2.33,2.33,0,0,1-1.71-.63,2.88,2.88,0,0,1-.59-1.92,8.16,8.16,0,0,1-.73.64A12.35,12.35,0,0,1,232.72,55Zm5.34-11.86a20.25,20.25,0,0,0-4.11-.44,7.13,7.13,0,0,0-4.31,1.13A3.71,3.71,0,0,0,228.12,47a3.86,3.86,0,0,0,1.37,3.18,5.93,5.93,0,0,0,3.87,1.13,11.47,11.47,0,0,0,4.7-1,11,11,0,0,0,3.19-2.21V44C240.27,43.65,239.21,43.36,238.06,43.09Z" transform="translate(-15.08 -19.67)" style="fill:#333"/><circle cx="6.48" cy="8.23" r="6.48" style="fill:#ff6601"/><circle cx="63.49" cy="8.23" r="6.48" style="fill:#333"/><path d="M55,31.9a6.48,6.48,0,0,0-10.11-8.12l-.12.17-28,34.89-.13.15a6.48,6.48,0,1,0,10.11,8.12,1.67,1.67,0,0,1,.12-.16l28-34.9Z" transform="translate(-15.08 -19.67)" style="fill:#333"/><path d="M70.83,47.54a6.47,6.47,0,0,0-10.09-8.1h0l0,.05-.14.15-.12.17L45,59l-.13.15A6.48,6.48,0,1,0,55,67.25l.12-.16,15.4-19.18s.09-.09.13-.15l.12-.16,0-.06Z" transform="translate(-15.08 -19.67)" style="fill:#ff6601"/></svg>