<svg width="445" height="68" viewBox="0 0 445 68" fill="none" xmlns="http://www.w3.org/2000/svg">
<path d="M122.377 46.986V52H102.229V20.122H108.025V46.986H122.377ZM124.742 40.086C124.742 37.97 125.049 36.1147 125.662 34.52C126.306 32.9253 127.15 31.6067 128.192 30.564C129.235 29.4907 130.431 28.6933 131.78 28.172C133.13 27.62 134.51 27.344 135.92 27.344C139.232 27.344 141.808 28.3713 143.648 30.426C145.519 32.4807 146.454 35.5473 146.454 39.626C146.454 39.9327 146.439 40.2853 146.408 40.684C146.408 41.052 146.393 41.3893 146.362 41.696H130.492C130.646 43.628 131.32 45.1307 132.516 46.204C133.743 47.2467 135.506 47.768 137.806 47.768C139.156 47.768 140.382 47.6453 141.486 47.4C142.621 47.1547 143.51 46.894 144.154 46.618L144.89 51.172C144.584 51.3253 144.154 51.494 143.602 51.678C143.081 51.8313 142.468 51.9693 141.762 52.092C141.088 52.2453 140.352 52.368 139.554 52.46C138.757 52.552 137.944 52.598 137.116 52.598C135 52.598 133.16 52.2913 131.596 51.678C130.032 51.034 128.744 50.16 127.732 49.056C126.72 47.9213 125.969 46.6027 125.478 45.1C124.988 43.5667 124.742 41.8953 124.742 40.086ZM140.888 37.602C140.888 36.8353 140.781 36.1147 140.566 35.44C140.352 34.7347 140.03 34.1367 139.6 33.646C139.202 33.1247 138.696 32.726 138.082 32.45C137.5 32.1433 136.794 31.99 135.966 31.99C135.108 31.99 134.356 32.1587 133.712 32.496C133.068 32.8027 132.516 33.2167 132.056 33.738C131.627 34.2593 131.29 34.8573 131.044 35.532C130.799 36.2067 130.63 36.8967 130.538 37.602H140.888ZM151.021 40.086C151.021 37.97 151.328 36.1147 151.941 34.52C152.585 32.9253 153.429 31.6067 154.471 30.564C155.514 29.4907 156.71 28.6933 158.059 28.172C159.409 27.62 160.789 27.344 162.199 27.344C165.511 27.344 168.087 28.3713 169.927 30.426C171.798 32.4807 172.733 35.5473 172.733 39.626C172.733 39.9327 172.718 40.2853 172.687 40.684C172.687 41.052 172.672 41.3893 172.641 41.696H156.771C156.925 43.628 157.599 45.1307 158.795 46.204C160.022 47.2467 161.785 47.768 164.085 47.768C165.435 47.768 166.661 47.6453 167.765 47.4C168.9 47.1547 169.789 46.894 170.433 46.618L171.169 51.172C170.863 51.3253 170.433 51.494 169.881 51.678C169.36 51.8313 168.747 51.9693 168.041 52.092C167.367 52.2453 166.631 52.368 165.833 52.46C165.036 52.552 164.223 52.598 163.395 52.598C161.279 52.598 159.439 52.2913 157.875 51.678C156.311 51.034 155.023 50.16 154.011 49.056C152.999 47.9213 152.248 46.6027 151.757 45.1C151.267 43.5667 151.021 41.8953 151.021 40.086ZM167.167 37.602C167.167 36.8353 167.06 36.1147 166.845 35.44C166.631 34.7347 166.309 34.1367 165.879 33.646C165.481 33.1247 164.975 32.726 164.361 32.45C163.779 32.1433 163.073 31.99 162.245 31.99C161.387 31.99 160.635 32.1587 159.991 32.496C159.347 32.8027 158.795 33.2167 158.335 33.738C157.906 34.2593 157.569 34.8573 157.323 35.532C157.078 36.2067 156.909 36.8967 156.817 37.602H167.167ZM192.343 39.35C192.343 36.8353 192.021 35.026 191.377 33.922C190.763 32.7873 189.598 32.22 187.881 32.22C187.267 32.22 186.593 32.266 185.857 32.358C185.121 32.45 184.569 32.5267 184.201 32.588V52H178.635V28.724C179.708 28.4173 181.103 28.126 182.821 27.85C184.569 27.574 186.409 27.436 188.341 27.436C189.997 27.436 191.346 27.6507 192.389 28.08C193.462 28.5093 194.351 29.0767 195.057 29.782C195.394 29.5367 195.823 29.276 196.345 29C196.866 28.724 197.449 28.4787 198.093 28.264C198.737 28.0187 199.411 27.8193 200.117 27.666C200.853 27.5127 201.589 27.436 202.325 27.436C204.195 27.436 205.729 27.712 206.925 28.264C208.151 28.7853 209.102 29.5367 209.777 30.518C210.482 31.4687 210.957 32.634 211.203 34.014C211.479 35.3633 211.617 36.8507 211.617 38.476V52H206.051V39.35C206.051 36.8353 205.744 35.026 205.131 33.922C204.517 32.7873 203.337 32.22 201.589 32.22C200.699 32.22 199.856 32.3733 199.059 32.68C198.261 32.956 197.663 33.232 197.265 33.508C197.51 34.2747 197.679 35.0873 197.771 35.946C197.863 36.8047 197.909 37.7247 197.909 38.706V52H192.343V39.35ZM226.9 48.09C228.617 48.09 229.92 47.998 230.81 47.814V41.65C230.503 41.558 230.058 41.466 229.476 41.374C228.893 41.282 228.249 41.236 227.544 41.236C226.93 41.236 226.302 41.282 225.658 41.374C225.044 41.466 224.477 41.6347 223.956 41.88C223.465 42.1253 223.066 42.478 222.76 42.938C222.453 43.3673 222.3 43.9193 222.3 44.594C222.3 45.9127 222.714 46.8327 223.542 47.354C224.37 47.8447 225.489 48.09 226.9 48.09ZM226.44 27.344C228.28 27.344 229.828 27.574 231.086 28.034C232.343 28.494 233.34 29.138 234.076 29.966C234.842 30.794 235.379 31.806 235.686 33.002C236.023 34.1673 236.192 35.4553 236.192 36.866V51.448C235.333 51.632 234.03 51.8467 232.282 52.092C230.564 52.368 228.617 52.506 226.44 52.506C224.998 52.506 223.68 52.368 222.484 52.092C221.288 51.816 220.26 51.3713 219.402 50.758C218.574 50.1447 217.914 49.3473 217.424 48.366C216.964 47.3847 216.734 46.1733 216.734 44.732C216.734 43.352 216.994 42.1867 217.516 41.236C218.068 40.2853 218.804 39.5187 219.724 38.936C220.644 38.3227 221.702 37.8933 222.898 37.648C224.124 37.372 225.397 37.234 226.716 37.234C227.329 37.234 227.973 37.28 228.648 37.372C229.322 37.4333 230.043 37.556 230.81 37.74V36.82C230.81 36.176 230.733 35.5627 230.58 34.98C230.426 34.3973 230.15 33.8913 229.752 33.462C229.384 33.002 228.878 32.6493 228.234 32.404C227.62 32.1587 226.838 32.036 225.888 32.036C224.6 32.036 223.419 32.128 222.346 32.312C221.272 32.496 220.398 32.7107 219.724 32.956L219.034 28.448C219.739 28.2027 220.766 27.9573 222.116 27.712C223.465 27.4667 224.906 27.344 226.44 27.344Z" fill="#F76902" fill-opacity="0.98"/>
<path d="M122.377 46.986V52H102.229V20.122H108.025V46.986H122.377ZM124.742 40.086C124.742 37.97 125.049 36.1147 125.662 34.52C126.306 32.9253 127.15 31.6067 128.192 30.564C129.235 29.4907 130.431 28.6933 131.78 28.172C133.13 27.62 134.51 27.344 135.92 27.344C139.232 27.344 141.808 28.3713 143.648 30.426C145.519 32.4807 146.454 35.5473 146.454 39.626C146.454 39.9327 146.439 40.2853 146.408 40.684C146.408 41.052 146.393 41.3893 146.362 41.696H130.492C130.646 43.628 131.32 45.1307 132.516 46.204C133.743 47.2467 135.506 47.768 137.806 47.768C139.156 47.768 140.382 47.6453 141.486 47.4C142.621 47.1547 143.51 46.894 144.154 46.618L144.89 51.172C144.584 51.3253 144.154 51.494 143.602 51.678C143.081 51.8313 142.468 51.9693 141.762 52.092C141.088 52.2453 140.352 52.368 139.554 52.46C138.757 52.552 137.944 52.598 137.116 52.598C135 52.598 133.16 52.2913 131.596 51.678C130.032 51.034 128.744 50.16 127.732 49.056C126.72 47.9213 125.969 46.6027 125.478 45.1C124.988 43.5667 124.742 41.8953 124.742 40.086ZM140.888 37.602C140.888 36.8353 140.781 36.1147 140.566 35.44C140.352 34.7347 140.03 34.1367 139.6 33.646C139.202 33.1247 138.696 32.726 138.082 32.45C137.5 32.1433 136.794 31.99 135.966 31.99C135.108 31.99 134.356 32.1587 133.712 32.496C133.068 32.8027 132.516 33.2167 132.056 33.738C131.627 34.2593 131.29 34.8573 131.044 35.532C130.799 36.2067 130.63 36.8967 130.538 37.602H140.888ZM151.021 40.086C151.021 37.97 151.328 36.1147 151.941 34.52C152.585 32.9253 153.429 31.6067 154.471 30.564C155.514 29.4907 156.71 28.6933 158.059 28.172C159.409 27.62 160.789 27.344 162.199 27.344C165.511 27.344 168.087 28.3713 169.927 30.426C171.798 32.4807 172.733 35.5473 172.733 39.626C172.733 39.9327 172.718 40.2853 172.687 40.684C172.687 41.052 172.672 41.3893 172.641 41.696H156.771C156.925 43.628 157.599 45.1307 158.795 46.204C160.022 47.2467 161.785 47.768 164.085 47.768C165.435 47.768 166.661 47.6453 167.765 47.4C168.9 47.1547 169.789 46.894 170.433 46.618L171.169 51.172C170.863 51.3253 170.433 51.494 169.881 51.678C169.36 51.8313 168.747 51.9693 168.041 52.092C167.367 52.2453 166.631 52.368 165.833 52.46C165.036 52.552 164.223 52.598 163.395 52.598C161.279 52.598 159.439 52.2913 157.875 51.678C156.311 51.034 155.023 50.16 154.011 49.056C152.999 47.9213 152.248 46.6027 151.757 45.1C151.267 43.5667 151.021 41.8953 151.021 40.086ZM167.167 37.602C167.167 36.8353 167.06 36.1147 166.845 35.44C166.631 34.7347 166.309 34.1367 165.879 33.646C165.481 33.1247 164.975 32.726 164.361 32.45C163.779 32.1433 163.073 31.99 162.245 31.99C161.387 31.99 160.635 32.1587 159.991 32.496C159.347 32.8027 158.795 33.2167 158.335 33.738C157.906 34.2593 157.569 34.8573 157.323 35.532C157.078 36.2067 156.909 36.8967 156.817 37.602H167.167ZM192.343 39.35C192.343 36.8353 192.021 35.026 191.377 33.922C190.763 32.7873 189.598 32.22 187.881 32.22C187.267 32.22 186.593 32.266 185.857 32.358C185.121 32.45 184.569 32.5267 184.201 32.588V52H178.635V28.724C179.708 28.4173 181.103 28.126 182.821 27.85C184.569 27.574 186.409 27.436 188.341 27.436C189.997 27.436 191.346 27.6507 192.389 28.08C193.462 28.5093 194.351 29.0767 195.057 29.782C195.394 29.5367 195.823 29.276 196.345 29C196.866 28.724 197.449 28.4787 198.093 28.264C198.737 28.0187 199.411 27.8193 200.117 27.666C200.853 27.5127 201.589 27.436 202.325 27.436C204.195 27.436 205.729 27.712 206.925 28.264C208.151 28.7853 209.102 29.5367 209.777 30.518C210.482 31.4687 210.957 32.634 211.203 34.014C211.479 35.3633 211.617 36.8507 211.617 38.476V52H206.051V39.35C206.051 36.8353 205.744 35.026 205.131 33.922C204.517 32.7873 203.337 32.22 201.589 32.22C200.699 32.22 199.856 32.3733 199.059 32.68C198.261 32.956 197.663 33.232 197.265 33.508C197.51 34.2747 197.679 35.0873 197.771 35.946C197.863 36.8047 197.909 37.7247 197.909 38.706V52H192.343V39.35ZM226.9 48.09C228.617 48.09 229.92 47.998 230.81 47.814V41.65C230.503 41.558 230.058 41.466 229.476 41.374C228.893 41.282 228.249 41.236 227.544 41.236C226.93 41.236 226.302 41.282 225.658 41.374C225.044 41.466 224.477 41.6347 223.956 41.88C223.465 42.1253 223.066 42.478 222.76 42.938C222.453 43.3673 222.3 43.9193 222.3 44.594C222.3 45.9127 222.714 46.8327 223.542 47.354C224.37 47.8447 225.489 48.09 226.9 48.09ZM226.44 27.344C228.28 27.344 229.828 27.574 231.086 28.034C232.343 28.494 233.34 29.138 234.076 29.966C234.842 30.794 235.379 31.806 235.686 33.002C236.023 34.1673 236.192 35.4553 236.192 36.866V51.448C235.333 51.632 234.03 51.8467 232.282 52.092C230.564 52.368 228.617 52.506 226.44 52.506C224.998 52.506 223.68 52.368 222.484 52.092C221.288 51.816 220.26 51.3713 219.402 50.758C218.574 50.1447 217.914 49.3473 217.424 48.366C216.964 47.3847 216.734 46.1733 216.734 44.732C216.734 43.352 216.994 42.1867 217.516 41.236C218.068 40.2853 218.804 39.5187 219.724 38.936C220.644 38.3227 221.702 37.8933 222.898 37.648C224.124 37.372 225.397 37.234 226.716 37.234C227.329 37.234 227.973 37.28 228.648 37.372C229.322 37.4333 230.043 37.556 230.81 37.74V36.82C230.81 36.176 230.733 35.5627 230.58 34.98C230.426 34.3973 230.15 33.8913 229.752 33.462C229.384 33.002 228.878 32.6493 228.234 32.404C227.62 32.1587 226.838 32.036 225.888 32.036C224.6 32.036 223.419 32.128 222.346 32.312C221.272 32.496 220.398 32.7107 219.724 32.956L219.034 28.448C219.739 28.2027 220.766 27.9573 222.116 27.712C223.465 27.4667 224.906 27.344 226.44 27.344Z" fill="#1E1E1E"/>
<path d="M274.444 23.71C274.935 25.366 275.456 27.0987 276.008 28.908C276.56 30.6867 277.127 32.4807 277.71 34.29C278.323 36.0687 278.921 37.832 279.504 39.58C280.117 41.2973 280.7 42.9227 281.252 44.456C281.712 42.8 282.157 41.006 282.586 39.074C283.015 37.1113 283.445 35.0873 283.874 33.002C284.303 30.886 284.717 28.7393 285.116 26.562C285.545 24.3847 285.944 22.238 286.312 20.122H292.292C291.219 25.8873 290.023 31.438 288.704 36.774C287.385 42.0793 285.913 47.1547 284.288 52H278.768C276.376 45.8053 274.061 39.0433 271.822 31.714C270.687 35.4247 269.537 38.9513 268.372 42.294C267.207 45.6367 266.041 48.872 264.876 52H259.356C257.7 47.1547 256.213 42.0793 254.894 36.774C253.606 31.438 252.425 25.8873 251.352 20.122H257.562C257.93 22.2073 258.313 24.3387 258.712 26.516C259.141 28.6933 259.571 30.84 260 32.956C260.46 35.0413 260.92 37.0653 261.38 39.028C261.84 40.9907 262.3 42.8 262.76 44.456C263.343 42.892 263.925 41.2513 264.508 39.534C265.121 37.786 265.719 36.0227 266.302 34.244C266.885 32.4347 267.437 30.6407 267.958 28.862C268.51 27.0833 269.016 25.366 269.476 23.71H274.444ZM294.727 40.086C294.727 37.97 295.033 36.1147 295.647 34.52C296.291 32.9253 297.134 31.6067 298.177 30.564C299.219 29.4907 300.415 28.6933 301.765 28.172C303.114 27.62 304.494 27.344 305.905 27.344C309.217 27.344 311.793 28.3713 313.633 30.426C315.503 32.4807 316.439 35.5473 316.439 39.626C316.439 39.9327 316.423 40.2853 316.393 40.684C316.393 41.052 316.377 41.3893 316.347 41.696H300.477C300.63 43.628 301.305 45.1307 302.501 46.204C303.727 47.2467 305.491 47.768 307.791 47.768C309.14 47.768 310.367 47.6453 311.471 47.4C312.605 47.1547 313.495 46.894 314.139 46.618L314.875 51.172C314.568 51.3253 314.139 51.494 313.587 51.678C313.065 51.8313 312.452 51.9693 311.747 52.092C311.072 52.2453 310.336 52.368 309.539 52.46C308.741 52.552 307.929 52.598 307.101 52.598C304.985 52.598 303.145 52.2913 301.581 51.678C300.017 51.034 298.729 50.16 297.717 49.056C296.705 47.9213 295.953 46.6027 295.463 45.1C294.972 43.5667 294.727 41.8953 294.727 40.086ZM310.873 37.602C310.873 36.8353 310.765 36.1147 310.551 35.44C310.336 34.7347 310.014 34.1367 309.585 33.646C309.186 33.1247 308.68 32.726 308.067 32.45C307.484 32.1433 306.779 31.99 305.951 31.99C305.092 31.99 304.341 32.1587 303.697 32.496C303.053 32.8027 302.501 33.2167 302.041 33.738C301.611 34.2593 301.274 34.8573 301.029 35.532C300.783 36.2067 300.615 36.8967 300.523 37.602H310.873ZM338.302 39.902C338.302 37.5407 337.827 35.67 336.876 34.29C335.956 32.91 334.484 32.22 332.46 32.22C331.54 32.22 330.666 32.358 329.838 32.634C329.041 32.91 328.397 33.2167 327.906 33.554V47.4C328.305 47.492 328.811 47.584 329.424 47.676C330.068 47.7373 330.835 47.768 331.724 47.768C333.779 47.768 335.389 47.078 336.554 45.698C337.719 44.2873 338.302 42.3553 338.302 39.902ZM344.006 39.994C344.006 41.926 343.715 43.674 343.132 45.238C342.58 46.7713 341.767 48.09 340.694 49.194C339.651 50.298 338.379 51.1413 336.876 51.724C335.373 52.3067 333.671 52.598 331.77 52.598C329.93 52.598 328.167 52.46 326.48 52.184C324.824 51.908 323.444 51.6013 322.34 51.264V17.224L327.906 16.304V28.77C328.55 28.4327 329.332 28.126 330.252 27.85C331.203 27.574 332.245 27.436 333.38 27.436C335.067 27.436 336.569 27.7427 337.888 28.356C339.237 28.9387 340.357 29.782 341.246 30.886C342.135 31.99 342.81 33.324 343.27 34.888C343.761 36.4213 344.006 38.1233 344.006 39.994Z" fill="#0C0C0C"/>
<path d="M372.236 20.122V25.136H362.438V52H356.596V25.136H346.798V20.122H372.236Z" fill="#EF6A09" fill-opacity="0.98"/>
<path d="M375.047 40.086C375.047 37.97 375.354 36.1147 375.967 34.52C376.611 32.9253 377.454 31.6067 378.497 30.564C379.54 29.4907 380.736 28.6933 382.085 28.172C383.434 27.62 384.814 27.344 386.225 27.344C389.537 27.344 392.113 28.3713 393.953 30.426C395.824 32.4807 396.759 35.5473 396.759 39.626C396.759 39.9327 396.744 40.2853 396.713 40.684C396.713 41.052 396.698 41.3893 396.667 41.696H380.797C380.95 43.628 381.625 45.1307 382.821 46.204C384.048 47.2467 385.811 47.768 388.111 47.768C389.46 47.768 390.687 47.6453 391.791 47.4C392.926 47.1547 393.815 46.894 394.459 46.618L395.195 51.172C394.888 51.3253 394.459 51.494 393.907 51.678C393.386 51.8313 392.772 51.9693 392.067 52.092C391.392 52.2453 390.656 52.368 389.859 52.46C389.062 52.552 388.249 52.598 387.421 52.598C385.305 52.598 383.465 52.2913 381.901 51.678C380.337 51.034 379.049 50.16 378.037 49.056C377.025 47.9213 376.274 46.6027 375.783 45.1C375.292 43.5667 375.047 41.8953 375.047 40.086ZM391.193 37.602C391.193 36.8353 391.086 36.1147 390.871 35.44C390.656 34.7347 390.334 34.1367 389.905 33.646C389.506 33.1247 389 32.726 388.387 32.45C387.804 32.1433 387.099 31.99 386.271 31.99C385.412 31.99 384.661 32.1587 384.017 32.496C383.373 32.8027 382.821 33.2167 382.361 33.738C381.932 34.2593 381.594 34.8573 381.349 35.532C381.104 36.2067 380.935 36.8967 380.843 37.602H391.193ZM401.326 39.994C401.326 38.2153 401.602 36.5593 402.154 35.026C402.706 33.462 403.488 32.1127 404.5 30.978C405.543 29.8433 406.8 28.954 408.272 28.31C409.744 27.666 411.4 27.344 413.24 27.344C415.509 27.344 417.656 27.758 419.68 28.586L418.484 33.14C417.84 32.864 417.104 32.634 416.276 32.45C415.479 32.266 414.62 32.174 413.7 32.174C411.523 32.174 409.867 32.864 408.732 34.244C407.597 35.5933 407.03 37.51 407.03 39.994C407.03 42.386 407.567 44.2873 408.64 45.698C409.713 47.078 411.523 47.768 414.068 47.768C415.019 47.768 415.954 47.676 416.874 47.492C417.794 47.308 418.591 47.078 419.266 46.802L420.048 51.402C419.435 51.7087 418.499 51.9847 417.242 52.23C416.015 52.4753 414.743 52.598 413.424 52.598C411.369 52.598 409.575 52.2913 408.042 51.678C406.539 51.034 405.282 50.16 404.27 49.056C403.289 47.9213 402.553 46.5873 402.062 45.054C401.571 43.49 401.326 41.8033 401.326 39.994ZM424.357 52V17.224L429.923 16.304V28.218C430.537 28.0033 431.242 27.8193 432.039 27.666C432.867 27.5127 433.68 27.436 434.477 27.436C436.409 27.436 438.004 27.712 439.261 28.264C440.549 28.7853 441.577 29.5367 442.343 30.518C443.11 31.4687 443.647 32.6187 443.953 33.968C444.291 35.3173 444.459 36.82 444.459 38.476V52H438.893V39.35C438.893 38.062 438.801 36.9733 438.617 36.084C438.464 35.164 438.188 34.428 437.789 33.876C437.421 33.2933 436.915 32.8793 436.271 32.634C435.627 32.358 434.83 32.22 433.879 32.22C433.143 32.22 432.392 32.2967 431.625 32.45C430.859 32.6033 430.291 32.7413 429.923 32.864V52H424.357Z" fill="#F76902" fill-opacity="0.98"/>
<path d="M1.82204 16.4917C-2.51383 9.08466 6.62572 0.905705 13.3653 6.16169L46.0858 31.6794C52.0922 36.3636 51.48 45.7559 44.9016 49.8474L19.6876 65.5293C12.3889 70.0687 3.12305 64.9422 3.12306 56.3647L3.12306 52.6755C3.12306 46.8119 8.414 42.2953 14.1221 43.2861C25.0239 45.1783 29.6968 29.5853 19.4805 25.4059L5.49764 19.6857C3.95589 19.0549 2.66674 17.9347 1.82204 16.4917Z" fill="url(#paint0_linear_0_1)"/>
<path d="M8.48896 20.2188C4.71195 18.6429 2.26691 14.9348 2.2669 10.7825C2.26688 2.86283 10.682 -2.32072 17.5602 1.36218L71.3167 30.1461C77.6386 33.5312 78.4544 42.354 72.8831 47.0865L10.6463 65.7708L63.9092 41.3284C68.145 39.3846 72.8831 42.4249 72.8831 47.0865L8.48896 20.2188Z" fill="url(#paint1_linear_0_1)"/>
<defs>
<linearGradient id="paint0_linear_0_1" x1="84.3017" y1="29.4936" x2="4.57515" y2="-1.5166" gradientUnits="userSpaceOnUse">
<stop stop-color="#FFAB07"/>
<stop offset="1" stop-color="#E75D0F" stop-opacity="0.94"/>
</linearGradient>
<linearGradient id="paint1_linear_0_1" x1="101.959" y1="20.1605" x2="22.2325" y2="-10.8497" gradientUnits="userSpaceOnUse">
<stop stop-color="#FFAB07"/>
<stop offset="1" stop-color="#B60000" stop-opacity="0.94"/>
</linearGradient>
</defs>
</svg>

